<svg xmlns="http://www.w3.org/2000/svg" xml:space="preserve" width="40.846" height="31.747" style="shape-rendering:geometricPrecision;text-rendering:geometricPrecision;image-rendering:optimizeQuality;fill-rule:evenodd;clip-rule:evenodd" viewBox="0 0 306.54 238.26"><path d="M61.86.39h24.97l15.81 45.86 16-45.86h24.78l-23.81 63.03 17.57 44.1L176.4 0h29.26l-55.41 138.54h-23.22L102.64 80.4l-24.2 58.14H55.22L0 0h28.88l39.41 107.52 17.18-44.1z" style="fill:#2196f3;fill-rule:nonzero"/><path d="M289.76 134.45c-.91-.91-2.6-2.15-5.07-3.71-2.34-1.56-5.27-3.06-8.78-4.49-3.38-1.43-7.09-2.67-11.12-3.71a43.889 43.889 0 0 0-12.29-1.76c-7.28 0-12.81 1.37-16.59 4.1-3.64 2.73-5.46 6.57-5.46 11.51 0 3.77 1.17 6.76 3.51 8.97 2.34 2.21 5.85 4.1 10.54 5.66 4.68 1.56 10.53 3.25 17.56 5.07 9.11 2.21 16.98 4.94 23.61 8.19 6.77 3.12 11.9 7.28 15.41 12.49 3.64 5.07 5.46 11.84 5.46 20.3 0 7.41-1.36 13.79-4.1 19.12-2.73 5.2-6.5 9.43-11.32 12.68-4.81 3.25-10.28 5.66-16.39 7.22-6.11 1.43-12.62 2.15-19.51 2.15-6.89 0-13.79-.71-20.68-2.15-6.89-1.43-13.53-3.45-19.9-6.05-6.37-2.73-12.23-5.99-17.56-9.76l11.9-23.22c1.17 1.17 3.25 2.73 6.24 4.68 2.99 1.82 6.63 3.71 10.93 5.66 4.29 1.82 8.98 3.38 14.05 4.68 9.03 2.31 23.97 3.5 32-1.76 3.77-2.47 5.66-5.99 5.66-10.54 0-4.16-1.49-7.41-4.49-9.76-2.99-2.34-7.15-4.36-12.49-6.05-5.33-1.82-11.64-3.77-18.93-5.85-8.71-2.47-16-5.2-21.85-8.19-5.85-3.12-10.21-7.03-13.07-11.71-2.86-4.68-4.29-10.54-4.29-17.56 0-9.5 2.21-17.43 6.63-23.81 4.55-6.5 10.67-11.38 18.34-14.63 7.68-3.38 16.19-5.07 25.56-5.07 6.51 0 12.62.72 18.34 2.15 5.85 1.43 11.32 3.32 16.39 5.66 5.07 2.34 9.63 4.88 13.66 7.61l-11.9 21.86z" style="fill:#000;fill-rule:nonzero"/></svg>